<?xml version="1.0" encoding="utf-8"?>
<!-- Generator: Adobe Illustrator 15.0.2, SVG Export Plug-In . SVG Version: 6.00 Build 0)  -->
<!DOCTYPE svg PUBLIC "-//W3C//DTD SVG 1.1//EN" "http://www.w3.org/Graphics/SVG/1.1/DTD/svg11.dtd">
<svg version="1.1" id="Layer_1" xmlns="http://www.w3.org/2000/svg" xmlns:xlink="http://www.w3.org/1999/xlink" x="0px" y="0px"
	 width="288px" height="288px" viewBox="0 0 288 288" enable-background="new 0 0 288 288" xml:space="preserve">
<path fill="#27367D" d="M45.892,90.583c0,0,36.499-37.833,92.5-37.833c61.667,0,101.167,45,101.167,45h-65.5
	c0,0-22.666-21.333-58.333-23.167C79.227,72.707,45.892,90.583,45.892,90.583z"/>
<path fill="#27367D" d="M237.225,197.417c0,0-36.498,37.833-92.5,37.833c-61.666,0-101.166-45-101.166-45h65.5
	c0,0,22.666,21.333,58.333,23.167C203.891,215.294,237.225,197.417,237.225,197.417z"/>
<g>
	<path d="M57.559,169.849c-0.815-0.374-1.699-0.646-3.094-0.646c-2.821,0-4.623,2.244-4.623,5.542c0,3.229,1.529,5.711,4.726,5.711
		c1.292,0,2.72-0.476,3.501-0.815l0.204,3.773c-1.325,0.408-2.686,0.578-4.556,0.578c-5.745,0-8.635-3.91-8.635-9.247
		c0-5.065,2.991-9.077,8.465-9.077c1.836,0,3.162,0.203,4.42,0.578L57.559,169.849z"/>
	<path d="M69.935,165.667c5.201,0,9.179,3.502,9.179,9.281c0,5.031-3.365,9.043-9.179,9.043c-5.779,0-9.146-4.012-9.146-9.043
		C60.79,169.169,64.768,165.667,69.935,165.667z M69.935,180.455c3.502,0,4.42-3.128,4.42-6.052c0-2.686-1.428-5.201-4.42-5.201
		c-2.958,0-4.386,2.584-4.386,5.201C65.549,177.294,66.467,180.455,69.935,180.455z"/>
	<path d="M83.298,166.075h4.317v2.379h0.068c1.428-2.006,3.365-2.787,5.745-2.787c4.147,0,5.949,2.924,5.949,6.867v11.049h-4.556
		v-9.35c0-2.141-0.034-5.031-2.957-5.031c-3.298,0-4.012,3.57-4.012,5.813v8.567h-4.556V166.075z"/>
	<path d="M115.086,169.747c-1.394-0.477-2.413-0.748-4.079-0.748c-1.224,0-2.686,0.441-2.686,1.938c0,2.787,7.921,1.02,7.921,7.343
		c0,4.08-3.638,5.712-7.343,5.712c-1.734,0-3.502-0.307-5.168-0.748l0.272-3.74c1.428,0.715,2.923,1.156,4.487,1.156
		c1.155,0,2.991-0.441,2.991-2.142c0-3.434-7.921-1.088-7.921-7.411c0-3.773,3.298-5.439,6.867-5.439
		c2.142,0,3.536,0.34,4.964,0.646L115.086,169.747z"/>
	<path d="M128.415,165.667c5.201,0,9.179,3.502,9.179,9.281c0,5.031-3.365,9.043-9.179,9.043c-5.779,0-9.146-4.012-9.146-9.043
		C119.269,169.169,123.248,165.667,128.415,165.667z M128.415,180.455c3.502,0,4.42-3.128,4.42-6.052
		c0-2.686-1.428-5.201-4.42-5.201c-2.958,0-4.386,2.584-4.386,5.201C124.029,177.294,124.947,180.455,128.415,180.455z"/>
	<path d="M141.879,166.075h4.046v3.977h0.068c0.203-1.631,2.072-4.385,4.793-4.385c0.441,0,0.918,0,1.393,0.136v4.59
		c-0.406-0.238-1.223-0.374-2.039-0.374c-3.705,0-3.705,4.623-3.705,7.139v6.426h-4.556V166.075z"/>
	<path d="M157.111,169.406h-3.365v-3.331h3.365v-3.502l4.555-1.462v4.964h4.047v3.331h-4.047v8.159c0,1.496,0.408,2.89,2.143,2.89
		c0.816,0,1.598-0.17,2.074-0.476l0.135,3.604c-0.951,0.271-2.006,0.408-3.365,0.408c-3.57,0-5.541-2.21-5.541-5.678V169.406z"/>
	<path d="M169.555,158.527h4.557v4.352h-4.557V158.527z M169.555,166.075h4.557v17.508h-4.557V166.075z"/>
	<path d="M195.598,183.583h-4.318v-2.38h-0.068c-1.393,1.7-3.365,2.788-5.744,2.788c-4.148,0-5.949-2.924-5.949-6.867v-11.049h4.555
		v9.349c0,2.142,0.033,5.031,2.957,5.031c3.299,0,4.012-3.569,4.012-5.813v-8.566h4.557V183.583z"/>
	<path d="M200.834,166.075h4.25v2.447h0.068c1.428-2.142,3.502-2.855,5.201-2.855c2.447,0,4.182,0.918,5.168,3.094
		c1.053-2.107,3.332-3.094,5.473-3.094c4.318,0,5.541,2.957,5.541,6.867v11.049h-4.555v-10.438c0-1.631,0-3.943-2.617-3.943
		c-3.025,0-3.4,3.604-3.4,5.882v8.499h-4.555v-10.438c0-1.631,0-3.943-2.619-3.943c-3.025,0-3.398,3.604-3.398,5.882v8.499h-4.557
		V166.075z"/>
</g>
<g>
	<path d="M44.729,106.051H58.1c14.981,0,28.213,5.041,28.213,24.433S73.082,154.917,58.1,154.917H44.729V106.051z M54.53,147.216
		h5.461c8.19,0,16.102-6.091,16.102-16.732s-7.911-16.732-16.102-16.732H54.53V147.216z"/>
	<path d="M109.269,106.051h11.062l19.182,48.866h-10.851l-4.2-11.201h-19.812l-4.271,11.201H90.227L109.269,106.051z
		 M114.66,115.853h-0.14l-7.07,20.162h14.281L114.66,115.853z"/>
	<path d="M144.967,106.051h9.8v48.866h-9.8V106.051z"/>
	<path d="M191.52,115.012c-3.08-1.33-6.51-2.1-9.941-2.1c-3.359,0-7.701,1.47-7.701,6.791c0,8.471,21.424,4.901,21.424,21.282
		c0,10.711-8.473,14.772-18.342,14.772c-5.322,0-7.701-0.7-12.533-1.891l0.91-8.82c3.361,1.82,7.211,3.01,11.062,3.01
		c3.709,0,8.68-1.891,8.68-6.301c0-9.311-21.422-5.46-21.422-21.632c0-10.921,8.471-14.912,17.082-14.912
		c4.201,0,8.121,0.56,11.691,1.75L191.52,115.012z"/>
	<path d="M217.139,135.595l-17.852-29.543h11.48l11.551,20.512l11.762-20.512h10.361l-17.502,29.543v19.322h-9.801V135.595z"/>
</g>
</svg>
